<svg xmlns="http://www.w3.org/2000/svg" xmlns:xlink="http://www.w3.org/1999/xlink" aria-hidden="true" role="img" class="iconify iconify--logos" width="31.88" height="32" preserveAspectRatio="xMidYMid meet" viewBox="0 0 256 257"><defs><linearGradient id="IconifyId1813088fe1fbc01fb466" x1="-.828%" x2="57.636%" y1="7.652%" y2="78.411%"><stop offset="0%" stop-color="#FF00FF"></stop><stop offset="100%" stop-color="#FF8C00"></stop></linearGradient></defs><path fill="url(#IconifyId1813088fe1fbc01fb466)" d="M128.001 0C57.307 0 0 57.307 0 128.001c0 70.694 57.307 128.001 128.001 128.001S256 198.695 256 128.001C256 57.307 198.695 0 128.001 0Zm0 239.52c-61.766 0-111.519-49.753-111.519-111.519S66.235 16.482 128.001 16.482c61.766 0 111.519 49.753 111.519 111.519s-49.753 111.519-111.519 111.519Z"></path><path fill="#FFF" d="M128.001 47.502c-44.337 0-80.499 36.162-80.499 80.499s36.162 80.499 80.499 80.499s80.499-36.162 80.499-80.499s-36.162-80.499-80.499-80.499Zm0 144.997c-35.596 0-64.498-28.902-64.498-64.498s28.902-64.498 64.498-64.498s64.498 28.902 64.498 64.498s-28.902 64.498-64.498 64.498Z"></path></svg>